G04*
G04 #@! TF.GenerationSoftware,Altium Limited,Altium Designer,26.8.1 (31)*
G04*
G04 Layer_Color=16711935*
G04 Board_Origin=10140000|16290000*
%FSLAX44Y44*%
%MOMM*%
G71*
G04*
G04 #@! TF.SameCoordinates,4D70C4DC-83D6-4A70-8618-55BD87341078*
G04*
G04*
G04 #@! TF.FilePolarity,Negative*
G04*
G01*
G75*
%ADD74C,1.0532*%
%ADD75C,6.0040*%
%ADD76R,1.7532X1.7532*%
%ADD77C,1.7112*%
%ADD78R,1.7532X1.7532*%
%ADD79C,1.7120*%
%ADD80C,1.7532*%
%ADD81R,1.7112X1.7112*%
%ADD82R,1.5700X1.5700*%
%ADD83C,2.5832*%
%ADD84C,1.3532*%
%ADD85C,0.6533*%
D74*
X104354Y1297054D02*
D03*
X34354D02*
D03*
D75*
X50800Y2006600D02*
D03*
Y3073400D02*
D03*
Y76200D02*
D03*
Y990600D02*
D03*
D76*
X94044Y1941452D02*
D03*
D77*
X120382Y1801718D02*
D03*
Y1826718D02*
D03*
Y1846718D02*
D03*
D78*
X20320Y1736852D02*
D03*
D79*
X29464Y1090968D02*
D03*
Y1115968D02*
D03*
Y1140968D02*
D03*
D80*
X119444Y1941452D02*
D03*
X20320Y1711452D02*
D03*
Y1686052D02*
D03*
Y1660652D02*
D03*
D81*
X120382Y1871718D02*
D03*
D82*
X29210Y1201928D02*
D03*
X231458Y1332360D02*
D03*
D83*
X93282Y1771018D02*
D03*
Y1902418D02*
D03*
D84*
X33084Y1566548D02*
D03*
Y1541148D02*
D03*
Y1515748D02*
D03*
D85*
X131064Y1628140D02*
D03*
X85090Y1627632D02*
D03*
X8734Y1466821D02*
D03*
X39116Y1260348D02*
D03*
X726440Y1681480D02*
D03*
Y1638300D02*
D03*
X419100Y1637836D02*
D03*
X767080Y1659890D02*
D03*
X695960Y1681480D02*
D03*
X645160D02*
D03*
Y1638300D02*
D03*
X596900D02*
D03*
X695960D02*
D03*
X596900Y1681480D02*
D03*
X566420D02*
D03*
X449580D02*
D03*
X482600D02*
D03*
X419100D02*
D03*
X508000D02*
D03*
X543560Y1659890D02*
D03*
Y1651000D02*
D03*
X534670D02*
D03*
X566420Y1638300D02*
D03*
X534162Y1659890D02*
D03*
X508000Y1638300D02*
D03*
X816864Y1615186D02*
D03*
X829310D02*
D03*
X829564Y1606042D02*
D03*
X816864Y1605788D02*
D03*
X803910Y1606296D02*
D03*
X803656Y1615186D02*
D03*
X845058Y1465326D02*
D03*
X818642Y1465072D02*
D03*
X816864Y1597914D02*
D03*
X790702Y1598676D02*
D03*
X628142Y1593088D02*
D03*
X482600Y1638300D02*
D03*
X449580D02*
D03*
X775970Y1532890D02*
D03*
X743966Y1533398D02*
D03*
X754126Y1474470D02*
D03*
X279492Y1707935D02*
D03*
X260442D02*
D03*
X241392D02*
D03*
X350520Y1681480D02*
D03*
X381000D02*
D03*
X309880D02*
D03*
X260442Y1688885D02*
D03*
X279492D02*
D03*
X241392D02*
D03*
X222342Y1650785D02*
D03*
Y1669835D02*
D03*
Y1707935D02*
D03*
X196942D02*
D03*
X222342Y1688885D02*
D03*
X196942Y1669835D02*
D03*
Y1688885D02*
D03*
Y1650785D02*
D03*
X129918Y1696336D02*
D03*
X350520Y1638300D02*
D03*
X381000D02*
D03*
X309880D02*
D03*
X273142Y1631735D02*
D03*
X247742D02*
D03*
X325120Y1466596D02*
D03*
X287020Y1354074D02*
D03*
X222342Y1631735D02*
D03*
X196942D02*
D03*
X178054Y1444244D02*
D03*
X217424Y1293622D02*
D03*
X653352Y1615824D02*
D03*
Y1521590D02*
D03*
X203010Y1465964D02*
D03*
X393764Y1513396D02*
D03*
X346012Y1525968D02*
D03*
X175578Y1513970D02*
D03*
X175866Y1491205D02*
D03*
X164656Y1378334D02*
D03*
M02*
