G04*
G04 #@! TF.GenerationSoftware,Altium Limited,Altium Designer,26.8.1 (31)*
G04*
G04 Layer_Color=65535*
G04 Board_Origin=10140000|16290000*
%FSLAX44Y44*%
%MOMM*%
G71*
G04*
G04 #@! TF.SameCoordinates,4D70C4DC-83D6-4A70-8618-55BD87341078*
G04*
G04*
G04 #@! TF.FilePolarity,Positive*
G04*
G01*
G75*
%ADD10C,0.2000*%
%ADD11C,0.3000*%
%ADD12C,0.2500*%
%ADD13C,0.1000*%
%ADD14C,0.1270*%
%ADD15C,0.1524*%
%ADD16C,0.2540*%
%ADD17C,0.2032*%
D10*
X22354Y1239054D02*
G03*
X20354Y1239054I-1000J0D01*
G01*
D02*
G03*
X22354Y1239054I1000J0D01*
G01*
X5464Y1140968D02*
G03*
X5464Y1140968I-1000J0D01*
G01*
X121382Y1921818D02*
G03*
X121382Y1921818I-1000J0D01*
G01*
X33084Y1598008D02*
G03*
X33084Y1596008I0J-1000D01*
G01*
D02*
G03*
X33084Y1598008I0J1000D01*
G01*
X791094Y1574584D02*
G03*
X791094Y1573584I0J-500D01*
G01*
D02*
G03*
X791094Y1574584I0J500D01*
G01*
D02*
G03*
X791094Y1573584I0J-500D01*
G01*
X223378Y1313202D02*
X238648D01*
X242148Y1262882D02*
Y1311922D01*
Y1262882D02*
X274108D01*
Y1311922D01*
X242148D02*
X274108D01*
X826344Y1436784D02*
X848344D01*
X826344Y1415784D02*
X848344D01*
X809344Y1463034D02*
Y1467534D01*
X795844Y1463034D02*
Y1467534D01*
X765788Y1506272D02*
Y1528272D01*
X786788Y1506272D02*
Y1528272D01*
X665974Y1670520D02*
X687974D01*
X665974Y1649520D02*
X687974D01*
X68812Y1378764D02*
Y1400764D01*
X89812Y1378764D02*
Y1400764D01*
X434834Y1648758D02*
X456834D01*
X434834Y1669758D02*
X456834D01*
X638960Y1597458D02*
Y1619458D01*
X617960Y1597458D02*
Y1619458D01*
X695438Y1566888D02*
X717438D01*
X695438Y1545888D02*
X717438D01*
X248398Y1743500D02*
X270398D01*
X248398Y1764500D02*
X270398D01*
X758684Y1464354D02*
X780684D01*
X758684Y1485354D02*
X780684D01*
X14610Y1188578D02*
Y1215278D01*
Y1188578D02*
X43810D01*
Y1215278D01*
X14610D02*
X43810D01*
X370178Y1652254D02*
X374678D01*
X370178Y1665754D02*
X374678D01*
X414484Y1646086D02*
Y1650586D01*
X400984Y1646086D02*
Y1650586D01*
X345904Y1645578D02*
Y1650078D01*
X332404Y1645578D02*
Y1650078D01*
X8984Y1493498D02*
Y1588798D01*
Y1493498D02*
X57284D01*
Y1588798D01*
X8984D02*
X57284D01*
X7620Y1646052D02*
X33020D01*
X7620D02*
Y1751452D01*
X33020D01*
Y1646052D02*
Y1751452D01*
X216858Y1319010D02*
Y1345710D01*
Y1319010D02*
X246058D01*
Y1345710D01*
X216858D02*
X246058D01*
X79444Y1954152D02*
X134044D01*
X79444Y1928752D02*
Y1954152D01*
Y1928752D02*
X134044D01*
Y1954152D01*
X738152Y1676014D02*
X754152D01*
X738152Y1644014D02*
X754152D01*
X797770Y1658532D02*
Y1663032D01*
X784270Y1658532D02*
Y1663032D01*
X96178Y1665252D02*
X119178D01*
X96178D02*
Y1695252D01*
X119178D01*
Y1665252D02*
Y1695252D01*
X122678Y1665252D02*
X136678D01*
X78332Y1537230D02*
X82832D01*
X78332Y1523730D02*
X82832D01*
X162030Y1537768D02*
Y1559768D01*
X183030Y1537768D02*
Y1559768D01*
X339262Y1501052D02*
Y1505552D01*
X352762Y1501052D02*
Y1505552D01*
X229064Y1546010D02*
Y1550510D01*
X215564Y1546010D02*
Y1550510D01*
X818844Y1536034D02*
Y1558034D01*
X839844Y1536034D02*
Y1558034D01*
X208802Y1507474D02*
X213302D01*
X208802Y1520974D02*
X213302D01*
X400514Y1487844D02*
Y1492344D01*
X387014Y1487844D02*
Y1492344D01*
X269282Y1509888D02*
X301282D01*
Y1423388D02*
Y1509888D01*
X269282Y1423388D02*
X301282D01*
X269282D02*
Y1509888D01*
X250532Y1511488D02*
X265782D01*
X125576Y1521952D02*
X130076D01*
X125576Y1535452D02*
X130076D01*
X120098Y1490638D02*
Y1495138D01*
X106598Y1490638D02*
Y1495138D01*
X184390Y1455128D02*
X206390D01*
X184390Y1434128D02*
X206390D01*
X191248Y1469942D02*
X213248D01*
X191248Y1490942D02*
X213248D01*
X173654Y1349668D02*
Y1354168D01*
X187154Y1349668D02*
Y1354168D01*
X227286Y1391324D02*
Y1395824D01*
X213786Y1391324D02*
Y1395824D01*
X754784Y1507034D02*
Y1529034D01*
X733784Y1507034D02*
Y1529034D01*
X86570Y1444156D02*
Y1448656D01*
X73070Y1444156D02*
Y1448656D01*
X146658Y1444012D02*
X151158D01*
X146658Y1430512D02*
X151158D01*
X152610Y1387514D02*
Y1392014D01*
X139110Y1387514D02*
Y1392014D01*
X102534Y1441022D02*
Y1445522D01*
X116034Y1441022D02*
Y1445522D01*
X139686Y1468164D02*
X161686D01*
X139686Y1489164D02*
X161686D01*
X297330Y1326186D02*
Y1348186D01*
X276330Y1326186D02*
Y1348186D01*
D11*
X157454Y1701370D02*
G03*
X157454Y1701370I-1000J0D01*
G01*
D12*
X819344Y1451534D02*
G03*
X819344Y1451534I-1250J0D01*
G01*
X522078Y1671758D02*
G03*
X522078Y1671758I-1250J0D01*
G01*
D13*
X726152Y1669914D02*
G03*
X725152Y1669914I-500J0D01*
G01*
D02*
G03*
X726152Y1669914I500J0D01*
G01*
X144354Y1282054D02*
Y1327054D01*
X38354Y1266554D02*
X100354D01*
X144354D02*
Y1282054D01*
X134354Y1266554D02*
X144354D01*
X58354Y1326554D02*
X144354D01*
X-25646Y1266554D02*
X8354D01*
X-25646D02*
Y1326554D01*
X28354D01*
D14*
X297954Y1602870D02*
Y1622870D01*
X284454Y1602870D02*
X297954D01*
X170954D02*
X186954D01*
X170954D02*
Y1614370D01*
X297954Y1719870D02*
Y1729870D01*
X286954D02*
X297954D01*
X170954Y1711870D02*
Y1729870D01*
X189454D01*
X49464Y1057968D02*
Y1173968D01*
X9464Y1057968D02*
X49464D01*
X9464D02*
Y1173968D01*
X49464D01*
X-9718Y1764218D02*
X77782D01*
X-9718D02*
Y1909218D01*
X77782D01*
X109782D02*
X131282D01*
X109782Y1764218D02*
X131282D01*
Y1909218D01*
D15*
X637985Y1645443D02*
Y1652245D01*
X618427Y1645443D02*
Y1652245D01*
X815304Y1499365D02*
X822107D01*
X815304Y1518923D02*
X822107D01*
X39624Y1655064D02*
Y1665221D01*
X43010Y1661835D01*
X46395Y1665221D01*
Y1655064D01*
X54859Y1665221D02*
X51473D01*
X49781Y1663528D01*
Y1656757D01*
X51473Y1655064D01*
X54859D01*
X56552Y1656757D01*
Y1663528D01*
X54859Y1665221D01*
X66709Y1663528D02*
X65016Y1665221D01*
X61630D01*
X59937Y1663528D01*
Y1661835D01*
X61630Y1660142D01*
X65016D01*
X66709Y1658450D01*
Y1656757D01*
X65016Y1655064D01*
X61630D01*
X59937Y1656757D01*
X70094Y1665221D02*
X73480D01*
X71787D01*
Y1655064D01*
X70094D01*
X73480D01*
X46395Y1688928D02*
X44702Y1690621D01*
X41317D01*
X39624Y1688928D01*
Y1682157D01*
X41317Y1680464D01*
X44702D01*
X46395Y1682157D01*
X56552Y1688928D02*
X54859Y1690621D01*
X51473D01*
X49781Y1688928D01*
Y1687235D01*
X51473Y1685542D01*
X54859D01*
X56552Y1683850D01*
Y1682157D01*
X54859Y1680464D01*
X51473D01*
X49781Y1682157D01*
X46395Y1739728D02*
X44702Y1741421D01*
X41317D01*
X39624Y1739728D01*
Y1732957D01*
X41317Y1731264D01*
X44702D01*
X46395Y1732957D01*
Y1736342D01*
X43010D01*
X49781Y1731264D02*
Y1741421D01*
X56552Y1731264D01*
Y1741421D01*
X59937D02*
Y1731264D01*
X65016D01*
X66709Y1732957D01*
Y1739728D01*
X65016Y1741421D01*
X59937D01*
X46395Y1714328D02*
X44702Y1716021D01*
X41317D01*
X39624Y1714328D01*
Y1712635D01*
X41317Y1710942D01*
X44702D01*
X46395Y1709250D01*
Y1707557D01*
X44702Y1705864D01*
X41317D01*
X39624Y1707557D01*
X56552Y1714328D02*
X54859Y1716021D01*
X51473D01*
X49781Y1714328D01*
Y1707557D01*
X51473Y1705864D01*
X54859D01*
X56552Y1707557D01*
X59937Y1716021D02*
Y1705864D01*
X66709D01*
X70094Y1716021D02*
Y1705864D01*
Y1709250D01*
X76865Y1716021D01*
X71787Y1710942D01*
X76865Y1705864D01*
X150961Y1259584D02*
X147576D01*
X149268D01*
Y1251120D01*
X147576Y1249428D01*
X145883D01*
X144190Y1251120D01*
X159425Y1249428D02*
Y1259584D01*
X154347Y1254506D01*
X161118D01*
X161441Y1748918D02*
Y1747226D01*
X164826Y1743840D01*
X168212Y1747226D01*
Y1748918D01*
X164826Y1743840D02*
Y1738762D01*
X171598D02*
X174983D01*
X173290D01*
Y1748918D01*
X171598Y1747226D01*
X248226Y1254888D02*
X251612D01*
X249919D01*
Y1244732D01*
X248226D01*
X251612D01*
X263461Y1253196D02*
X261768Y1254888D01*
X258383D01*
X256690Y1253196D01*
Y1246424D01*
X258383Y1244732D01*
X261768D01*
X263461Y1246424D01*
X273618Y1254888D02*
X270232Y1253196D01*
X266847Y1249810D01*
Y1246424D01*
X268540Y1244732D01*
X271925D01*
X273618Y1246424D01*
Y1248117D01*
X271925Y1249810D01*
X266847D01*
X864003Y1429726D02*
X862310Y1431418D01*
X858925D01*
X857232Y1429726D01*
Y1422954D01*
X858925Y1421262D01*
X862310D01*
X864003Y1422954D01*
X867389D02*
X869082Y1421262D01*
X872467D01*
X874160Y1422954D01*
Y1429726D01*
X872467Y1431418D01*
X869082D01*
X867389Y1429726D01*
Y1428033D01*
X869082Y1426340D01*
X874160D01*
X849634Y1470912D02*
X853020D01*
X851327D01*
Y1460756D01*
X849634D01*
X853020D01*
X864869Y1469220D02*
X863176Y1470912D01*
X859791D01*
X858098Y1469220D01*
Y1462448D01*
X859791Y1460756D01*
X863176D01*
X864869Y1462448D01*
X875026Y1470912D02*
X868255D01*
Y1465834D01*
X871640Y1467527D01*
X873333D01*
X875026Y1465834D01*
Y1462448D01*
X873333Y1460756D01*
X869948D01*
X868255Y1462448D01*
X622197Y1681862D02*
Y1671706D01*
X628968D01*
X632354D02*
X635739D01*
X634046D01*
Y1681862D01*
X632354Y1680170D01*
X788399Y1435232D02*
Y1445388D01*
X793477D01*
X795170Y1443696D01*
Y1440310D01*
X793477Y1438617D01*
X788399D01*
X791785D02*
X795170Y1435232D01*
X798556D02*
X801941D01*
X800248D01*
Y1445388D01*
X798556Y1443696D01*
X807020Y1435232D02*
X810405D01*
X808712D01*
Y1445388D01*
X807020Y1443696D01*
X771294Y1546566D02*
X769601Y1548258D01*
X766216D01*
X764523Y1546566D01*
Y1539794D01*
X766216Y1538102D01*
X769601D01*
X771294Y1539794D01*
X774680Y1538102D02*
X778065D01*
X776372D01*
Y1548258D01*
X774680Y1546566D01*
X783144Y1538102D02*
X786529D01*
X784836D01*
Y1548258D01*
X783144Y1546566D01*
X676297Y1640800D02*
X674604Y1642492D01*
X671219D01*
X669526Y1640800D01*
Y1634028D01*
X671219Y1632336D01*
X674604D01*
X676297Y1634028D01*
X679683Y1640800D02*
X681376Y1642492D01*
X684761D01*
X686454Y1640800D01*
Y1639107D01*
X684761Y1637414D01*
X683068D01*
X684761D01*
X686454Y1635721D01*
Y1634028D01*
X684761Y1632336D01*
X681376D01*
X679683Y1634028D01*
X30480Y1042246D02*
X28787Y1043938D01*
X25402D01*
X23709Y1042246D01*
Y1040553D01*
X25402Y1038860D01*
X28787D01*
X30480Y1037167D01*
Y1035474D01*
X28787Y1033782D01*
X25402D01*
X23709Y1035474D01*
X33866Y1033782D02*
X37251D01*
X35558D01*
Y1043938D01*
X33866Y1042246D01*
X442807Y1695026D02*
X441114Y1696718D01*
X437729D01*
X436036Y1695026D01*
Y1688254D01*
X437729Y1686562D01*
X441114D01*
X442807Y1688254D01*
X452964Y1686562D02*
X446193D01*
X452964Y1693333D01*
Y1695026D01*
X451271Y1696718D01*
X447886D01*
X446193Y1695026D01*
X64858Y1589276D02*
Y1582505D01*
X68244Y1579120D01*
X71630Y1582505D01*
Y1589276D01*
X75015Y1579120D02*
Y1589276D01*
X80094D01*
X81786Y1587584D01*
Y1584198D01*
X80094Y1582505D01*
X75015D01*
X78401D02*
X81786Y1579120D01*
X85172D02*
X88558D01*
X86865D01*
Y1589276D01*
X85172Y1587584D01*
X400476Y1620522D02*
Y1630678D01*
X405554D01*
X407247Y1628986D01*
Y1625600D01*
X405554Y1623907D01*
X400476D01*
X403862D02*
X407247Y1620522D01*
X415711D02*
Y1630678D01*
X410633Y1625600D01*
X417404D01*
X330690Y1616080D02*
Y1626236D01*
X335768D01*
X337461Y1624544D01*
Y1621158D01*
X335768Y1619465D01*
X330690D01*
X334076D02*
X337461Y1616080D01*
X340847Y1624544D02*
X342540Y1626236D01*
X345925D01*
X347618Y1624544D01*
Y1622851D01*
X345925Y1621158D01*
X344232D01*
X345925D01*
X347618Y1619465D01*
Y1617772D01*
X345925Y1616080D01*
X342540D01*
X340847Y1617772D01*
X367456Y1689102D02*
Y1699258D01*
X372534D01*
X374227Y1697566D01*
Y1694180D01*
X372534Y1692487D01*
X367456D01*
X370842D02*
X374227Y1689102D01*
X384384D02*
X377613D01*
X384384Y1695873D01*
Y1697566D01*
X382691Y1699258D01*
X379306D01*
X377613Y1697566D01*
X30480Y1231898D02*
X27094D01*
X28787D01*
Y1223434D01*
X27094Y1221742D01*
X25402D01*
X23709Y1223434D01*
X33866Y1221742D02*
X37251D01*
X35558D01*
Y1231898D01*
X33866Y1230206D01*
X258213Y1781008D02*
X256520Y1782700D01*
X253135D01*
X251442Y1781008D01*
Y1774236D01*
X253135Y1772544D01*
X256520D01*
X258213Y1774236D01*
X268370Y1782700D02*
X261599D01*
Y1777622D01*
X264984Y1779315D01*
X266677D01*
X268370Y1777622D01*
Y1774236D01*
X266677Y1772544D01*
X263292D01*
X261599Y1774236D01*
X157294Y1387226D02*
Y1397382D01*
X162372D01*
X164065Y1395690D01*
Y1392304D01*
X162372Y1390611D01*
X157294D01*
X160680D02*
X164065Y1387226D01*
X167451D02*
X170836D01*
X169144D01*
Y1397382D01*
X167451Y1395690D01*
X175915D02*
X177608Y1397382D01*
X180993D01*
X182686Y1395690D01*
Y1393997D01*
X180993Y1392304D01*
X182686Y1390611D01*
Y1388918D01*
X180993Y1387226D01*
X177608D01*
X175915Y1388918D01*
Y1390611D01*
X177608Y1392304D01*
X175915Y1393997D01*
Y1395690D01*
X177608Y1392304D02*
X180993D01*
X136974Y1448186D02*
Y1458342D01*
X142052D01*
X143745Y1456650D01*
Y1453264D01*
X142052Y1451571D01*
X136974D01*
X140360D02*
X143745Y1448186D01*
X147131D02*
X150516D01*
X148824D01*
Y1458342D01*
X147131Y1456650D01*
X155595Y1458342D02*
X162366D01*
Y1456650D01*
X155595Y1449878D01*
Y1448186D01*
X97604Y1461394D02*
Y1471550D01*
X102683D01*
X104375Y1469858D01*
Y1466472D01*
X102683Y1464779D01*
X97604D01*
X100990D02*
X104375Y1461394D01*
X107761D02*
X111146D01*
X109454D01*
Y1471550D01*
X107761Y1469858D01*
X122996Y1471550D02*
X119610Y1469858D01*
X116225Y1466472D01*
Y1463086D01*
X117918Y1461394D01*
X121303D01*
X122996Y1463086D01*
Y1464779D01*
X121303Y1466472D01*
X116225D01*
X42486Y1439550D02*
Y1449706D01*
X47565D01*
X49257Y1448014D01*
Y1444628D01*
X47565Y1442935D01*
X42486D01*
X45872D02*
X49257Y1439550D01*
X52643D02*
X56028D01*
X54336D01*
Y1449706D01*
X52643Y1448014D01*
X67878Y1449706D02*
X61107D01*
Y1444628D01*
X64492Y1446321D01*
X66185D01*
X67878Y1444628D01*
Y1441242D01*
X66185Y1439550D01*
X62800D01*
X61107Y1441242D01*
X142816Y1347856D02*
Y1358012D01*
X147894D01*
X149587Y1356320D01*
Y1352934D01*
X147894Y1351241D01*
X142816D01*
X146202D02*
X149587Y1347856D01*
X152973D02*
X156358D01*
X154666D01*
Y1358012D01*
X152973Y1356320D01*
X166515Y1347856D02*
Y1358012D01*
X161437Y1352934D01*
X168208D01*
X230954Y1389004D02*
Y1399160D01*
X236033D01*
X237725Y1397468D01*
Y1394082D01*
X236033Y1392389D01*
X230954D01*
X234340D02*
X237725Y1389004D01*
X241111D02*
X244496D01*
X242804D01*
Y1399160D01*
X241111Y1397468D01*
X249575D02*
X251268Y1399160D01*
X254653D01*
X256346Y1397468D01*
Y1395775D01*
X254653Y1394082D01*
X252960D01*
X254653D01*
X256346Y1392389D01*
Y1390696D01*
X254653Y1389004D01*
X251268D01*
X249575Y1390696D01*
X77792Y1487556D02*
Y1497712D01*
X82871D01*
X84563Y1496020D01*
Y1492634D01*
X82871Y1490941D01*
X77792D01*
X81178D02*
X84563Y1487556D01*
X87949D02*
X91334D01*
X89642D01*
Y1497712D01*
X87949Y1496020D01*
X103184Y1487556D02*
X96413D01*
X103184Y1494327D01*
Y1496020D01*
X101491Y1497712D01*
X98106D01*
X96413Y1496020D01*
X115574Y1541274D02*
Y1551430D01*
X120653D01*
X122345Y1549738D01*
Y1546352D01*
X120653Y1544659D01*
X115574D01*
X118960D02*
X122345Y1541274D01*
X125731D02*
X129116D01*
X127424D01*
Y1551430D01*
X125731Y1549738D01*
X134195D02*
X135888Y1551430D01*
X139273D01*
X140966Y1549738D01*
Y1542966D01*
X139273Y1541274D01*
X135888D01*
X134195Y1542966D01*
Y1549738D01*
X407842Y1486664D02*
Y1496820D01*
X412920D01*
X414613Y1495128D01*
Y1491742D01*
X412920Y1490049D01*
X407842D01*
X411228D02*
X414613Y1486664D01*
X417999Y1488356D02*
X419692Y1486664D01*
X423077D01*
X424770Y1488356D01*
Y1495128D01*
X423077Y1496820D01*
X419692D01*
X417999Y1495128D01*
Y1493435D01*
X419692Y1491742D01*
X424770D01*
X189720Y1523878D02*
Y1534034D01*
X194798D01*
X196491Y1532342D01*
Y1528956D01*
X194798Y1527263D01*
X189720D01*
X193106D02*
X196491Y1523878D01*
X199877Y1532342D02*
X201570Y1534034D01*
X204955D01*
X206648Y1532342D01*
Y1530649D01*
X204955Y1528956D01*
X206648Y1527263D01*
Y1525570D01*
X204955Y1523878D01*
X201570D01*
X199877Y1525570D01*
Y1527263D01*
X201570Y1528956D01*
X199877Y1530649D01*
Y1532342D01*
X201570Y1528956D02*
X204955D01*
X215882Y1565788D02*
Y1575944D01*
X220960D01*
X222653Y1574252D01*
Y1570866D01*
X220960Y1569173D01*
X215882D01*
X219268D02*
X222653Y1565788D01*
X226039Y1575944D02*
X232810D01*
Y1574252D01*
X226039Y1567480D01*
Y1565788D01*
X359328Y1500380D02*
Y1510536D01*
X364406D01*
X366099Y1508844D01*
Y1505458D01*
X364406Y1503765D01*
X359328D01*
X362714D02*
X366099Y1500380D01*
X376256Y1510536D02*
X372870Y1508844D01*
X369485Y1505458D01*
Y1502072D01*
X371178Y1500380D01*
X374563D01*
X376256Y1502072D01*
Y1503765D01*
X374563Y1505458D01*
X369485D01*
X73388Y1541658D02*
Y1551814D01*
X78466D01*
X80159Y1550122D01*
Y1546736D01*
X78466Y1545043D01*
X73388D01*
X76774D02*
X80159Y1541658D01*
X90316Y1551814D02*
X83545D01*
Y1546736D01*
X86930Y1548429D01*
X88623D01*
X90316Y1546736D01*
Y1543350D01*
X88623Y1541658D01*
X85238D01*
X83545Y1543350D01*
X804759Y1651002D02*
Y1661158D01*
X809837D01*
X811530Y1659466D01*
Y1656080D01*
X809837Y1654387D01*
X804759D01*
X808144D02*
X811530Y1651002D01*
X814916D02*
X818301D01*
X816608D01*
Y1661158D01*
X814916Y1659466D01*
X98216Y1963422D02*
Y1973578D01*
X103294D01*
X104987Y1971886D01*
Y1968500D01*
X103294Y1966807D01*
X98216D01*
X115144Y1963422D02*
X108373D01*
X115144Y1970193D01*
Y1971886D01*
X113451Y1973578D01*
X110066D01*
X108373Y1971886D01*
X14247Y1630298D02*
Y1640454D01*
X19325D01*
X21018Y1638762D01*
Y1635376D01*
X19325Y1633683D01*
X14247D01*
X24404Y1630298D02*
X27789D01*
X26096D01*
Y1640454D01*
X24404Y1638762D01*
X841230Y1512698D02*
Y1502542D01*
X848001D01*
X858158D02*
X851387D01*
X858158Y1509313D01*
Y1511006D01*
X856465Y1512698D01*
X853080D01*
X851387Y1511006D01*
X143341Y1906522D02*
X139956D01*
X141648D01*
Y1898058D01*
X139956Y1896366D01*
X138263D01*
X136570Y1898058D01*
X146727Y1904830D02*
X148420Y1906522D01*
X151805D01*
X153498Y1904830D01*
Y1903137D01*
X151805Y1901444D01*
X150112D01*
X151805D01*
X153498Y1899751D01*
Y1898058D01*
X151805Y1896366D01*
X148420D01*
X146727Y1898058D01*
X201507Y1330958D02*
X198122D01*
X199814D01*
Y1322494D01*
X198122Y1320802D01*
X196429D01*
X194736Y1322494D01*
X211664Y1320802D02*
X204893D01*
X211664Y1327573D01*
Y1329266D01*
X209971Y1330958D01*
X206586D01*
X204893Y1329266D01*
X274642Y1527938D02*
X278028D01*
X276335D01*
Y1517782D01*
X274642D01*
X278028D01*
X289877Y1526246D02*
X288184Y1527938D01*
X284799D01*
X283106Y1526246D01*
Y1519474D01*
X284799Y1517782D01*
X288184D01*
X289877Y1519474D01*
X298341Y1517782D02*
Y1527938D01*
X293263Y1522860D01*
X300034D01*
X839030Y1618362D02*
X842416D01*
X840723D01*
Y1608206D01*
X839030D01*
X842416D01*
X854265Y1616670D02*
X852572Y1618362D01*
X849187D01*
X847494Y1616670D01*
Y1609898D01*
X849187Y1608206D01*
X852572D01*
X854265Y1609898D01*
X857651Y1616670D02*
X859344Y1618362D01*
X862729D01*
X864422Y1616670D01*
Y1614977D01*
X862729Y1613284D01*
X861036D01*
X862729D01*
X864422Y1611591D01*
Y1609898D01*
X862729Y1608206D01*
X859344D01*
X857651Y1609898D01*
X93730Y1711196D02*
X97116D01*
X95423D01*
Y1701040D01*
X93730D01*
X97116D01*
X108965Y1709504D02*
X107272Y1711196D01*
X103887D01*
X102194Y1709504D01*
Y1702732D01*
X103887Y1701040D01*
X107272D01*
X108965Y1702732D01*
X119122Y1701040D02*
X112351D01*
X119122Y1707811D01*
Y1709504D01*
X117429Y1711196D01*
X114044D01*
X112351Y1709504D01*
X527795Y1689482D02*
X531180D01*
X529488D01*
Y1679326D01*
X527795D01*
X531180D01*
X543030Y1687790D02*
X541337Y1689482D01*
X537952D01*
X536259Y1687790D01*
Y1681018D01*
X537952Y1679326D01*
X541337D01*
X543030Y1681018D01*
X546416Y1679326D02*
X549801D01*
X548108D01*
Y1689482D01*
X546416Y1687790D01*
X741746Y1692022D02*
X734975D01*
Y1686944D01*
X738360D01*
X734975D01*
Y1681866D01*
X745131Y1692022D02*
Y1681866D01*
X751902D01*
X755288D02*
X758673D01*
X756981D01*
Y1692022D01*
X755288Y1690330D01*
X309861Y1338032D02*
X308169Y1339724D01*
X304783D01*
X303090Y1338032D01*
Y1331260D01*
X304783Y1329568D01*
X308169D01*
X309861Y1331260D01*
X313247Y1329568D02*
X316632D01*
X314940D01*
Y1339724D01*
X313247Y1338032D01*
X321711Y1339724D02*
X328482D01*
Y1338032D01*
X321711Y1331260D01*
Y1329568D01*
X145015Y1502370D02*
X143322Y1504062D01*
X139937D01*
X138244Y1502370D01*
Y1495598D01*
X139937Y1493906D01*
X143322D01*
X145015Y1495598D01*
X148401Y1493906D02*
X151786D01*
X150094D01*
Y1504062D01*
X148401Y1502370D01*
X156865D02*
X158558Y1504062D01*
X161943D01*
X163636Y1502370D01*
Y1500677D01*
X161943Y1498984D01*
X163636Y1497291D01*
Y1495598D01*
X161943Y1493906D01*
X158558D01*
X156865Y1495598D01*
Y1497291D01*
X158558Y1498984D01*
X156865Y1500677D01*
Y1502370D01*
X158558Y1498984D02*
X161943D01*
X738867Y1546566D02*
X737175Y1548258D01*
X733789D01*
X732096Y1546566D01*
Y1539794D01*
X733789Y1538102D01*
X737175D01*
X738867Y1539794D01*
X742253Y1538102D02*
X745638D01*
X743946D01*
Y1548258D01*
X742253Y1546566D01*
X757488Y1548258D02*
X750717D01*
Y1543180D01*
X754102Y1544873D01*
X755795D01*
X757488Y1543180D01*
Y1539794D01*
X755795Y1538102D01*
X752410D01*
X750717Y1539794D01*
X44939Y1393404D02*
X43246Y1395096D01*
X39861D01*
X38168Y1393404D01*
Y1386632D01*
X39861Y1384940D01*
X43246D01*
X44939Y1386632D01*
X48325Y1384940D02*
X51710D01*
X50018D01*
Y1395096D01*
X48325Y1393404D01*
X63560Y1395096D02*
X60174Y1393404D01*
X56789Y1390018D01*
Y1386632D01*
X58482Y1384940D01*
X61867D01*
X63560Y1386632D01*
Y1388325D01*
X61867Y1390018D01*
X56789D01*
X730739Y1476462D02*
X729046Y1478154D01*
X725661D01*
X723968Y1476462D01*
Y1469690D01*
X725661Y1467998D01*
X729046D01*
X730739Y1469690D01*
X734125Y1467998D02*
X737510D01*
X735818D01*
Y1478154D01*
X734125Y1476462D01*
X749360Y1467998D02*
X742589D01*
X749360Y1474769D01*
Y1476462D01*
X747667Y1478154D01*
X744282D01*
X742589Y1476462D01*
X198291Y1503002D02*
X196598Y1504694D01*
X193213D01*
X191520Y1503002D01*
Y1496230D01*
X193213Y1494538D01*
X196598D01*
X198291Y1496230D01*
X201677Y1494538D02*
X205062D01*
X203370D01*
Y1504694D01*
X201677Y1503002D01*
X215219Y1494538D02*
Y1504694D01*
X210141Y1499616D01*
X216912D01*
X216897Y1447252D02*
X215205Y1448944D01*
X211819D01*
X210126Y1447252D01*
Y1440480D01*
X211819Y1438788D01*
X215205D01*
X216897Y1440480D01*
X220283Y1438788D02*
X223668D01*
X221976D01*
Y1448944D01*
X220283Y1447252D01*
X228747D02*
X230440Y1448944D01*
X233825D01*
X235518Y1447252D01*
Y1445559D01*
X233825Y1443866D01*
X232132D01*
X233825D01*
X235518Y1442173D01*
Y1440480D01*
X233825Y1438788D01*
X230440D01*
X228747Y1440480D01*
X701021Y1583142D02*
X699329Y1584834D01*
X695943D01*
X694250Y1583142D01*
Y1576370D01*
X695943Y1574678D01*
X699329D01*
X701021Y1576370D01*
X704407Y1574678D02*
X707792D01*
X706100D01*
Y1584834D01*
X704407Y1583142D01*
X712871D02*
X714564Y1584834D01*
X717949D01*
X719642Y1583142D01*
Y1576370D01*
X717949Y1574678D01*
X714564D01*
X712871Y1576370D01*
Y1583142D01*
X854097Y1549614D02*
X852404Y1551306D01*
X849019D01*
X847326Y1549614D01*
Y1542842D01*
X849019Y1541150D01*
X852404D01*
X854097Y1542842D01*
X857483Y1549614D02*
X859176Y1551306D01*
X862561D01*
X864254Y1549614D01*
Y1547921D01*
X862561Y1546228D01*
X864254Y1544535D01*
Y1542842D01*
X862561Y1541150D01*
X859176D01*
X857483Y1542842D01*
Y1544535D01*
X859176Y1546228D01*
X857483Y1547921D01*
Y1549614D01*
X859176Y1546228D02*
X862561D01*
X173631Y1572474D02*
X171938Y1574166D01*
X168553D01*
X166860Y1572474D01*
Y1565702D01*
X168553Y1564010D01*
X171938D01*
X173631Y1565702D01*
X177017Y1574166D02*
X183788D01*
Y1572474D01*
X177017Y1565702D01*
Y1564010D01*
X129943Y1623020D02*
X128250Y1624712D01*
X124865D01*
X123172Y1623020D01*
Y1616248D01*
X124865Y1614556D01*
X128250D01*
X129943Y1616248D01*
X140100Y1624712D02*
X136714Y1623020D01*
X133329Y1619634D01*
Y1616248D01*
X135022Y1614556D01*
X138407D01*
X140100Y1616248D01*
Y1617941D01*
X138407Y1619634D01*
X133329D01*
X83969Y1622004D02*
X82276Y1623696D01*
X78891D01*
X77198Y1622004D01*
Y1615232D01*
X78891Y1613540D01*
X82276D01*
X83969Y1615232D01*
X92433Y1613540D02*
Y1623696D01*
X87355Y1618618D01*
X94126D01*
X651574Y1604986D02*
X649881Y1606678D01*
X646496D01*
X644803Y1604986D01*
Y1598214D01*
X646496Y1596522D01*
X649881D01*
X651574Y1598214D01*
X654960Y1596522D02*
X658345D01*
X656652D01*
Y1606678D01*
X654960Y1604986D01*
D16*
X91928Y3023870D02*
X76693D01*
Y3016252D01*
X79232Y3013713D01*
X89389D01*
X91928Y3016252D01*
Y3023870D01*
X76693Y3001017D02*
Y3006096D01*
X79232Y3008635D01*
X84310D01*
X86850Y3006096D01*
Y3001017D01*
X84310Y2998478D01*
X81771D01*
Y3008635D01*
X76693Y2993400D02*
Y2985782D01*
X79232Y2983243D01*
X81771Y2985782D01*
Y2990861D01*
X84310Y2993400D01*
X86850Y2990861D01*
Y2983243D01*
X76693Y2978165D02*
Y2973087D01*
Y2975626D01*
X86850D01*
Y2978165D01*
X71614Y2960391D02*
Y2957851D01*
X74154Y2955312D01*
X86850D01*
Y2962930D01*
X84310Y2965469D01*
X79232D01*
X76693Y2962930D01*
Y2955312D01*
Y2950234D02*
X86850D01*
Y2942616D01*
X84310Y2940077D01*
X76693D01*
Y2927381D02*
Y2932460D01*
X79232Y2934999D01*
X84310D01*
X86850Y2932460D01*
Y2927381D01*
X84310Y2924842D01*
X81771D01*
Y2934999D01*
X91928Y2909607D02*
X76693D01*
Y2917224D01*
X79232Y2919764D01*
X84310D01*
X86850Y2917224D01*
Y2909607D01*
X62471Y3023870D02*
X47236D01*
Y3016252D01*
X49776Y3013713D01*
X52315D01*
X54854Y3016252D01*
Y3023870D01*
Y3016252D01*
X57393Y3013713D01*
X59932D01*
X62471Y3016252D01*
Y3023870D01*
X57393Y3008635D02*
X49776D01*
X47236Y3006096D01*
Y2998478D01*
X44697D01*
X42158Y3001017D01*
Y3003557D01*
X47236Y2998478D02*
X57393D01*
X33015Y3023870D02*
X17780D01*
Y3016252D01*
X20319Y3013713D01*
X22858D01*
X25398Y3016252D01*
Y3023870D01*
Y3016252D01*
X27937Y3013713D01*
X30476D01*
X33015Y3016252D01*
Y3023870D01*
X17780Y3008635D02*
Y3003557D01*
Y3006096D01*
X27937D01*
Y3008635D01*
X17780Y2995939D02*
Y2990861D01*
Y2993400D01*
X33015D01*
Y2995939D01*
X17780Y2983243D02*
Y2978165D01*
Y2980704D01*
X33015D01*
Y2983243D01*
X27937Y2968008D02*
Y2962930D01*
X25398Y2960391D01*
X17780D01*
Y2968008D01*
X20319Y2970547D01*
X22858Y2968008D01*
Y2960391D01*
X17780Y2955312D02*
Y2950234D01*
Y2952773D01*
X33015D01*
Y2955312D01*
X58410Y2501138D02*
X73645D01*
X68567Y2496060D01*
X73645Y2490981D01*
X58410D01*
X68567Y2483364D02*
Y2478285D01*
X66027Y2475746D01*
X58410D01*
Y2483364D01*
X60949Y2485903D01*
X63488Y2483364D01*
Y2475746D01*
X73645Y2460511D02*
X58410D01*
Y2468129D01*
X60949Y2470668D01*
X66027D01*
X68567Y2468129D01*
Y2460511D01*
X58410Y2447815D02*
Y2452894D01*
X60949Y2455433D01*
X66027D01*
X68567Y2452894D01*
Y2447815D01*
X66027Y2445276D01*
X63488D01*
Y2455433D01*
X68567Y2424963D02*
X60949D01*
X58410Y2422424D01*
X60949Y2419884D01*
X58410Y2417345D01*
X60949Y2414806D01*
X68567D01*
X58410Y2409728D02*
Y2404649D01*
Y2407188D01*
X68567D01*
Y2409728D01*
X71106Y2394492D02*
X68567D01*
Y2397032D01*
Y2391953D01*
Y2394492D01*
X60949D01*
X58410Y2391953D01*
X73645Y2384336D02*
X58410D01*
X66027D01*
X68567Y2381797D01*
Y2376718D01*
X66027Y2374179D01*
X58410D01*
Y2353866D02*
Y2346248D01*
X60949Y2343709D01*
X63488Y2346248D01*
Y2351326D01*
X66027Y2353866D01*
X68567Y2351326D01*
Y2343709D01*
Y2338631D02*
X60949D01*
X58410Y2336091D01*
Y2328474D01*
X68567D01*
X53332Y2318317D02*
Y2315778D01*
X55871Y2313239D01*
X68567D01*
Y2320856D01*
X66027Y2323396D01*
X60949D01*
X58410Y2320856D01*
Y2313239D01*
X68567Y2305621D02*
Y2300543D01*
X66027Y2298004D01*
X58410D01*
Y2305621D01*
X60949Y2308160D01*
X63488Y2305621D01*
Y2298004D01*
X68567Y2292925D02*
X58410D01*
X63488D01*
X66027Y2290386D01*
X68567Y2287847D01*
Y2285308D01*
X55871Y2275151D02*
X58410Y2272612D01*
X60949D01*
Y2275151D01*
X58410D01*
Y2272612D01*
X55871Y2275151D01*
X53332Y2277690D01*
X58410Y2247220D02*
Y2239603D01*
X60949Y2237063D01*
X63488Y2239603D01*
Y2244681D01*
X66027Y2247220D01*
X68567Y2244681D01*
Y2237063D01*
X53332Y2231985D02*
X68567D01*
Y2224368D01*
X66027Y2221828D01*
X60949D01*
X58410Y2224368D01*
Y2231985D01*
Y2216750D02*
Y2211672D01*
Y2214211D01*
X68567D01*
Y2216750D01*
Y2193897D02*
Y2201515D01*
X66027Y2204054D01*
X60949D01*
X58410Y2201515D01*
Y2193897D01*
Y2181201D02*
Y2186280D01*
X60949Y2188819D01*
X66027D01*
X68567Y2186280D01*
Y2181201D01*
X66027Y2178662D01*
X63488D01*
Y2188819D01*
X55871Y2171045D02*
X58410Y2168506D01*
X60949D01*
Y2171045D01*
X58410D01*
Y2168506D01*
X55871Y2171045D01*
X53332Y2173584D01*
X36571Y2498599D02*
Y2493521D01*
X34032Y2490981D01*
X26414D01*
Y2498599D01*
X28953Y2501138D01*
X31493Y2498599D01*
Y2490981D01*
X26414Y2485903D02*
X36571D01*
Y2478285D01*
X34032Y2475746D01*
X26414D01*
X41649Y2460511D02*
X26414D01*
Y2468129D01*
X28953Y2470668D01*
X34032D01*
X36571Y2468129D01*
Y2460511D01*
X26414Y2432580D02*
Y2437659D01*
X28953Y2440198D01*
X34032D01*
X36571Y2437659D01*
Y2432580D01*
X34032Y2430041D01*
X31493D01*
Y2440198D01*
X36571Y2424963D02*
X26414Y2419884D01*
X36571Y2414806D01*
X26414Y2402110D02*
Y2407188D01*
X28953Y2409728D01*
X34032D01*
X36571Y2407188D01*
Y2402110D01*
X34032Y2399571D01*
X31493D01*
Y2409728D01*
X36571Y2394492D02*
X26414D01*
X31493D01*
X34032Y2391953D01*
X36571Y2389414D01*
Y2386875D01*
Y2379257D02*
X28953D01*
X26414Y2376718D01*
Y2369101D01*
X23875D01*
X21336Y2371640D01*
Y2374179D01*
X26414Y2369101D02*
X36571D01*
X39110Y2361483D02*
X36571D01*
Y2364022D01*
Y2358944D01*
Y2361483D01*
X28953D01*
X26414Y2358944D01*
X41649Y2351326D02*
X26414D01*
X34032D01*
X36571Y2348787D01*
Y2343709D01*
X34032Y2341170D01*
X26414D01*
Y2336091D02*
Y2331013D01*
Y2333552D01*
X36571D01*
Y2336091D01*
X26414Y2323396D02*
X36571D01*
Y2315778D01*
X34032Y2313239D01*
X26414D01*
X21336Y2303082D02*
Y2300543D01*
X23875Y2298004D01*
X36571D01*
Y2305621D01*
X34032Y2308160D01*
X28953D01*
X26414Y2305621D01*
Y2298004D01*
Y2277690D02*
X36571D01*
Y2270073D01*
X34032Y2267534D01*
X26414D01*
Y2262455D02*
Y2257377D01*
Y2259916D01*
X36571D01*
Y2262455D01*
Y2239603D02*
Y2247220D01*
X34032Y2249759D01*
X28953D01*
X26414Y2247220D01*
Y2239603D01*
Y2226907D02*
Y2231985D01*
X28953Y2234524D01*
X34032D01*
X36571Y2231985D01*
Y2226907D01*
X34032Y2224368D01*
X31493D01*
Y2234524D01*
Y2219289D02*
X44189D01*
X28953D02*
X26414D01*
X213357Y1351280D02*
X203200D01*
X213357Y1361437D01*
Y1363976D01*
X210818Y1366515D01*
X205739D01*
X203200Y1363976D01*
X218435Y1351280D02*
Y1353819D01*
X220974D01*
Y1351280D01*
X218435D01*
X241288Y1366515D02*
X231131D01*
Y1358898D01*
X236209Y1361437D01*
X238748D01*
X241288Y1358898D01*
Y1353819D01*
X238748Y1351280D01*
X233670D01*
X231131Y1353819D01*
X246366Y1366515D02*
Y1356358D01*
X251444Y1351280D01*
X256523Y1356358D01*
Y1366515D01*
X40637Y1945636D02*
X38098Y1948175D01*
X33019D01*
X30480Y1945636D01*
Y1935479D01*
X33019Y1932940D01*
X38098D01*
X40637Y1935479D01*
Y1940558D01*
X35558D01*
X45715Y1932940D02*
Y1948175D01*
X55872Y1932940D01*
Y1948175D01*
X60950D02*
Y1932940D01*
X68568D01*
X71107Y1935479D01*
Y1945636D01*
X68568Y1948175D01*
X60950D01*
X152397D02*
X142240D01*
Y1940558D01*
X147318Y1943097D01*
X149858D01*
X152397Y1940558D01*
Y1935479D01*
X149858Y1932940D01*
X144779D01*
X142240Y1935479D01*
X157475Y1948175D02*
Y1938018D01*
X162553Y1932940D01*
X167632Y1938018D01*
Y1948175D01*
D17*
X66376Y1074332D02*
X64260Y1076448D01*
X60028D01*
X57912Y1074332D01*
Y1065868D01*
X60028Y1063752D01*
X64260D01*
X66376Y1065868D01*
Y1070100D01*
X62144D01*
X70608Y1063752D02*
Y1076448D01*
X79072Y1063752D01*
Y1076448D01*
X83304D02*
Y1063752D01*
X89652D01*
X91768Y1065868D01*
Y1074332D01*
X89652Y1076448D01*
X83304D01*
X57912Y1124284D02*
Y1111588D01*
X66376D01*
X79072Y1124284D02*
X70608D01*
Y1111588D01*
X79072D01*
X70608Y1117936D02*
X74840D01*
X91768Y1124284D02*
X83304D01*
Y1117936D01*
X87536D01*
X83304D01*
Y1111588D01*
X96000Y1124284D02*
X104464D01*
X100232D01*
Y1111588D01*
X108695Y1109472D02*
X117160D01*
X129855Y1122168D02*
X127739Y1124284D01*
X123507D01*
X121391Y1122168D01*
Y1120052D01*
X123507Y1117936D01*
X127739D01*
X129855Y1115820D01*
Y1113704D01*
X127739Y1111588D01*
X123507D01*
X121391Y1113704D01*
X134087Y1124284D02*
Y1122168D01*
X138319Y1117936D01*
X142551Y1122168D01*
Y1124284D01*
X138319Y1117936D02*
Y1111588D01*
X146783D02*
Y1124284D01*
X155247Y1111588D01*
Y1124284D01*
X167943Y1122168D02*
X165827Y1124284D01*
X161595D01*
X159479Y1122168D01*
Y1113704D01*
X161595Y1111588D01*
X165827D01*
X167943Y1113704D01*
X66376Y1163232D02*
X64260Y1165348D01*
X60028D01*
X57912Y1163232D01*
Y1154768D01*
X60028Y1152652D01*
X64260D01*
X66376Y1154768D01*
Y1159000D01*
X62144D01*
X70608Y1152652D02*
Y1165348D01*
X76956D01*
X79072Y1163232D01*
Y1159000D01*
X76956Y1156884D01*
X70608D01*
X83304Y1165348D02*
X87536D01*
X85420D01*
Y1152652D01*
X83304D01*
X87536D01*
X100232Y1165348D02*
X96000D01*
X93884Y1163232D01*
Y1154768D01*
X96000Y1152652D01*
X100232D01*
X102348Y1154768D01*
Y1163232D01*
X100232Y1165348D01*
X58756Y1203872D02*
X56640Y1205988D01*
X52408D01*
X50292Y1203872D01*
Y1195408D01*
X52408Y1193292D01*
X56640D01*
X58756Y1195408D01*
Y1199640D01*
X54524D01*
X62988Y1193292D02*
Y1205988D01*
X69336D01*
X71452Y1203872D01*
Y1199640D01*
X69336Y1197524D01*
X62988D01*
X75684Y1205988D02*
X79916D01*
X77800D01*
Y1193292D01*
X75684D01*
X79916D01*
X92612Y1205988D02*
X88380D01*
X86264Y1203872D01*
Y1195408D01*
X88380Y1193292D01*
X92612D01*
X94728Y1195408D01*
Y1203872D01*
X92612Y1205988D01*
X120119Y1203872D02*
X118003Y1205988D01*
X113771D01*
X111656Y1203872D01*
Y1195408D01*
X113771Y1193292D01*
X118003D01*
X120119Y1195408D01*
X126467Y1193292D02*
X130699D01*
X132815Y1195408D01*
Y1199640D01*
X130699Y1201756D01*
X126467D01*
X124351Y1199640D01*
Y1195408D01*
X126467Y1193292D01*
X137047D02*
Y1201756D01*
X143395D01*
X145511Y1199640D01*
Y1193292D01*
X151859Y1203872D02*
Y1201756D01*
X149743D01*
X153975D01*
X151859D01*
Y1195408D01*
X153975Y1193292D01*
X160323Y1201756D02*
Y1193292D01*
Y1197524D01*
X162439Y1199640D01*
X164555Y1201756D01*
X166671D01*
X175135Y1193292D02*
X179367D01*
X181483Y1195408D01*
Y1199640D01*
X179367Y1201756D01*
X175135D01*
X173019Y1199640D01*
Y1195408D01*
X175135Y1193292D01*
X185715D02*
X189947D01*
X187831D01*
Y1205988D01*
X185715D01*
X4572Y1355428D02*
Y1368124D01*
X10920D01*
X13036Y1366008D01*
Y1361776D01*
X10920Y1359660D01*
X4572D01*
X8804D02*
X13036Y1355428D01*
X17268Y1368124D02*
X21500D01*
X19384D01*
Y1355428D01*
X17268D01*
X21500D01*
X36312Y1366008D02*
X34196Y1368124D01*
X29964D01*
X27848Y1366008D01*
Y1357544D01*
X29964Y1355428D01*
X34196D01*
X36312Y1357544D01*
Y1361776D01*
X32080D01*
X40544Y1368124D02*
Y1355428D01*
Y1361776D01*
X49008D01*
Y1368124D01*
Y1355428D01*
X53240Y1368124D02*
X61704D01*
X57471D01*
Y1355428D01*
X65936Y1353312D02*
X74399D01*
X78631Y1368124D02*
X82863D01*
X80747D01*
Y1355428D01*
X78631D01*
X82863D01*
X97675Y1368124D02*
X89211D01*
Y1361776D01*
X93443D01*
X89211D01*
Y1355428D01*
X101092Y1241124D02*
Y1228428D01*
X109556D01*
X122252Y1241124D02*
X113788D01*
Y1228428D01*
X122252D01*
X113788Y1234776D02*
X118020D01*
X134948Y1241124D02*
X126484D01*
Y1234776D01*
X130716D01*
X126484D01*
Y1228428D01*
X139180Y1241124D02*
X147644D01*
X143412D01*
Y1228428D01*
X151875Y1226312D02*
X160340D01*
X173035Y1239008D02*
X170919Y1241124D01*
X166687D01*
X164571Y1239008D01*
Y1236892D01*
X166687Y1234776D01*
X170919D01*
X173035Y1232660D01*
Y1230544D01*
X170919Y1228428D01*
X166687D01*
X164571Y1230544D01*
X177267Y1241124D02*
Y1239008D01*
X181499Y1234776D01*
X185731Y1239008D01*
Y1241124D01*
X181499Y1234776D02*
Y1228428D01*
X189963D02*
Y1241124D01*
X198427Y1228428D01*
Y1241124D01*
X211123Y1239008D02*
X209007Y1241124D01*
X204775D01*
X202659Y1239008D01*
Y1230544D01*
X204775Y1228428D01*
X209007D01*
X211123Y1230544D01*
M02*
