G04*
G04 #@! TF.GenerationSoftware,Altium Limited,Altium Designer,26.8.1 (31)*
G04*
G04 Layer_Color=8421504*
G04 Board_Origin=10140000|16290000*
%FSLAX44Y44*%
%MOMM*%
G71*
G04*
G04 #@! TF.SameCoordinates,4D70C4DC-83D6-4A70-8618-55BD87341078*
G04*
G04*
G04 #@! TF.FilePolarity,Positive*
G04*
G01*
G75*
%ADD18R,2.2000X2.8000*%
%ADD19R,2.8000X2.6000*%
%ADD20R,1.0700X0.6100*%
%ADD21R,0.2500X0.8000*%
%ADD22R,1.7500X1.7500*%
%ADD23R,0.8000X0.2500*%
%ADD24R,0.7600X1.0900*%
%ADD25R,3.3000X2.1400*%
%ADD26R,1.2700X1.2800*%
%ADD27R,0.3000X0.7500*%
%ADD28R,1.6500X0.8500*%
%ADD29R,0.7600X1.9500*%
%ADD30R,1.3500X0.9500*%
%ADD31R,0.9500X1.3500*%
%ADD32R,1.3300X1.8300*%
%ADD33R,1.8300X1.3300*%
%ADD34R,1.4000X0.3000*%
%ADD35R,1.2000X0.9000*%
%ADD36R,1.5250X0.6500*%
%ADD37R,1.5280X0.6500*%
%ADD38R,1.7018X0.8636*%
%ADD39R,0.8636X1.7018*%
%ADD40R,0.9000X1.2000*%
D18*
X43354Y1334054D02*
D03*
X23354Y1260054D02*
D03*
D19*
X117354Y1259054D02*
D03*
D20*
X756402Y1660014D02*
D03*
X735902Y1669914D02*
D03*
Y1650114D02*
D03*
Y1660014D02*
D03*
X756402Y1650114D02*
D03*
Y1669914D02*
D03*
D21*
X541828Y1671258D02*
D03*
X536828D02*
D03*
X546828D02*
D03*
X531828D02*
D03*
X536828Y1642258D02*
D03*
X531828D02*
D03*
X546828D02*
D03*
X541828D02*
D03*
D22*
X539328Y1656758D02*
D03*
D23*
X553828Y1649258D02*
D03*
X524828Y1654258D02*
D03*
Y1649258D02*
D03*
Y1659258D02*
D03*
Y1664258D02*
D03*
X553828Y1654258D02*
D03*
Y1659258D02*
D03*
Y1664258D02*
D03*
D24*
X816494Y1625034D02*
D03*
X829194D02*
D03*
X803794D02*
D03*
Y1584134D02*
D03*
X829194D02*
D03*
X791094Y1625034D02*
D03*
D25*
X816494Y1608884D02*
D03*
D26*
X793644Y1604584D02*
D03*
D27*
X834594Y1475284D02*
D03*
X829594Y1455284D02*
D03*
X824594Y1475284D02*
D03*
X829594D02*
D03*
X839594D02*
D03*
Y1455284D02*
D03*
X834594D02*
D03*
X824594D02*
D03*
D28*
X832094Y1465284D02*
D03*
D29*
X791094Y1588434D02*
D03*
X816494D02*
D03*
D30*
X776288Y1524772D02*
D03*
X628460Y1600958D02*
D03*
X744284Y1525534D02*
D03*
X286830Y1344686D02*
D03*
X131128Y1636264D02*
D03*
X85154Y1635502D02*
D03*
X628460Y1615958D02*
D03*
X776288Y1509772D02*
D03*
X744284Y1510534D02*
D03*
X131128Y1651264D02*
D03*
X79312Y1382264D02*
D03*
Y1397264D02*
D03*
X85154Y1650502D02*
D03*
X172530Y1541268D02*
D03*
Y1556268D02*
D03*
X829344Y1539534D02*
D03*
Y1554534D02*
D03*
X286830Y1329686D02*
D03*
D31*
X762184Y1474854D02*
D03*
X266898Y1754000D02*
D03*
X187890Y1444628D02*
D03*
X251898Y1754000D02*
D03*
X777184Y1474854D02*
D03*
X202890Y1444628D02*
D03*
X829844Y1426284D02*
D03*
X844844D02*
D03*
X669474Y1660020D02*
D03*
X684474D02*
D03*
X453334Y1659258D02*
D03*
X438334D02*
D03*
X698938Y1556388D02*
D03*
X713938D02*
D03*
X209748Y1480442D02*
D03*
X194748D02*
D03*
X158186Y1478664D02*
D03*
X143186D02*
D03*
D32*
X276364Y1726770D02*
D03*
X225564D02*
D03*
X200164D02*
D03*
X248424Y1605970D02*
D03*
X273824D02*
D03*
X197624D02*
D03*
X223024D02*
D03*
X250964Y1726770D02*
D03*
D33*
X294854Y1709550D02*
D03*
Y1684150D02*
D03*
X174054Y1700660D02*
D03*
Y1649860D02*
D03*
X294854Y1633350D02*
D03*
X174054Y1624460D02*
D03*
X294854Y1658750D02*
D03*
X174054Y1675260D02*
D03*
D34*
X129678Y1690252D02*
D03*
Y1685252D02*
D03*
Y1670252D02*
D03*
Y1675252D02*
D03*
Y1680252D02*
D03*
X85678Y1690252D02*
D03*
Y1685252D02*
D03*
Y1680252D02*
D03*
Y1675252D02*
D03*
Y1670252D02*
D03*
D35*
X407734Y1637836D02*
D03*
X339154Y1637328D02*
D03*
X180404Y1341418D02*
D03*
X802594Y1475784D02*
D03*
X339154Y1658328D02*
D03*
X802594Y1454784D02*
D03*
X407734Y1658836D02*
D03*
X791020Y1671282D02*
D03*
Y1650282D02*
D03*
X346012Y1492802D02*
D03*
Y1513802D02*
D03*
X222314Y1558760D02*
D03*
Y1537760D02*
D03*
X393764Y1500594D02*
D03*
Y1479594D02*
D03*
X113348Y1503388D02*
D03*
Y1482388D02*
D03*
X180404Y1362418D02*
D03*
X220536Y1404074D02*
D03*
Y1383074D02*
D03*
X79820Y1456906D02*
D03*
Y1435906D02*
D03*
X145860Y1400264D02*
D03*
Y1379264D02*
D03*
X109284Y1432772D02*
D03*
Y1453772D02*
D03*
D36*
X312402Y1466638D02*
D03*
X258162D02*
D03*
Y1504738D02*
D03*
Y1492038D02*
D03*
Y1479338D02*
D03*
Y1453938D02*
D03*
Y1441238D02*
D03*
Y1428538D02*
D03*
X312402D02*
D03*
Y1441238D02*
D03*
Y1453938D02*
D03*
Y1479338D02*
D03*
Y1492038D02*
D03*
Y1504738D02*
D03*
D37*
X231018Y1293752D02*
D03*
Y1281052D02*
D03*
X285238Y1306452D02*
D03*
Y1293752D02*
D03*
Y1281052D02*
D03*
Y1268352D02*
D03*
X231018D02*
D03*
Y1306452D02*
D03*
D38*
X628206Y1638049D02*
D03*
Y1659639D02*
D03*
D39*
X807911Y1509144D02*
D03*
X829501D02*
D03*
D40*
X361928Y1659004D02*
D03*
X382928D02*
D03*
X70082Y1530480D02*
D03*
X91082D02*
D03*
X221552Y1514224D02*
D03*
X200552D02*
D03*
X138326Y1528702D02*
D03*
X117326D02*
D03*
X138408Y1437262D02*
D03*
X159408D02*
D03*
M02*
