M48
;Layer_Color=9474304
;FILE_FORMAT=4:4
METRIC,LZ
;TYPE=PLATED
T01F00S00C0.3000
T02F00S00C0.7100
T03F00S00C1.0000
T04F00S00C1.0200
T05F00S00C2.7000
;TYPE=NON_PLATED
T06F00S00C1.7000
T07F00S00C2.3800
%
T01
X00039116Y01260348
X00008734Y01466821
X00175866Y01491205
X00175578Y0151397
X00178054Y01444244
X0020301Y01465964
X0032512Y01466596
X00346012Y01525968
X00393764Y01513396
X0028702Y01354074
X00217424Y01293622
X00164656Y01378334
X00653352Y0152159
X00743966Y01533398
X0077597Y0153289
X00754126Y0147447
X00818642Y01465072
X00845058Y01465326
X00829564Y01606042
X0082931Y01615186
X00816864
Y01605788
Y01597914
X0080391Y01606296
X00803656Y01615186
X00790702Y01598676
X0076708Y0165989
X0072644Y0168148
X0069596
Y016383
X0072644
X0064516
X00653352Y01615824
X00628142Y01593088
X005969Y016383
X0056642
X0054356Y01651
Y0165989
X0056642Y0168148
X005969
X0064516
X00534162Y0165989
X0053467Y01651
X00508Y016383
X004826
X0044958
X004191Y01637836
X00381Y016383
X0035052
X0030988
Y0168148
X00279492Y01688885
Y01707935
X00260442
X00241392
Y01688885
X00260442
X00222342
Y01669835
Y01650785
Y01631735
X00247742
X00273142
X00196942
Y01650785
Y01669835
Y01688885
Y01707935
X00222342
X0035052Y0168148
X00381
X004191
X0044958
X004826
X00508
X00129918Y01696336
X00131064Y0162814
X0008509Y01627632
T02
X00033084Y01515748
Y01541148
Y01566548
T03
X00029464Y01090968
Y01115968
Y01140968
X00120382Y01801718
Y01826718
Y01846718
Y01871718
T04
X0002921Y01201928
X00231458Y0133236
X0002032Y01660652
Y01686052
Y01711452
Y01736852
X00094044Y01941452
X00119444
T05
X000508Y000762
Y009906
Y020066
Y030734
T06
X00034354Y01297054
X00104354
T07
X00093282Y01771018
Y01902418
M30
